<?xml version="1.0" encoding="utf-8"?>
<!-- Generator: Adobe Illustrator 24.1.2, SVG Export Plug-In . SVG Version: 6.00 Build 0)  -->
<svg version="1.1" id="Layer_1" xmlns="http://www.w3.org/2000/svg" xmlns:xlink="http://www.w3.org/1999/xlink" x="0px" y="0px"
	 viewBox="0 0 387.7 86.4" style="enable-background:new 0 0 387.7 86.4;" xml:space="preserve">
<style type="text/css">
	.st0{fill-rule:evenodd;clip-rule:evenodd;fill:#FFFFFF;}
</style>
<g id="Document" transform="scale(1 -1)">
	<g id="Spread" transform="translate(0 -86.4)">
		<g id="Layer_1_1_">
			<path class="st0" d="M72.7,7V83H60l0.2-48.9L1.8,82.4L2,6.1h11v49.3L72.7,7"/>
			<path class="st0" d="M80.8,5.7l9.7,16.6h-8.9v11.6h14.7L123,82.4l42.7-76.7h-15.1l-8.7,16.6H104L94.8,5.7H80.8 M109.2,34.1h27.4
				l-13.7,25.1L109.2,34.1"/>
			<path class="st0" d="M273.9,5.7h-12.4v76.5l42.3-49.1l42.7,50.2V5.7h-13.3L333,47.4l-29.4-35.4l-29.6,35.2V5.7"/>
			<path class="st0" d="M370.5,5.7l0.2,78.3h12.6l-0.2-78.3H370.5"/>
			<path class="st0" d="M165.3,43.2c0,23,18.7,41.7,41.7,41.7c23,0,41.7-18.7,41.7-41.7c0-23-18.7-41.7-41.7-41.7
				C184,1.6,165.3,20.2,165.3,43.2 M207,14c16.2,0,29.2,13.1,29.2,29.2c0,16-13.1,29-29.2,29c-16,0-29-13.1-29-29
				C178,27.1,191,14,207,14"/>
		</g>
	</g>
</g>
</svg>
